<?xml version="1.0" encoding="UTF-8"?>
<svg width="24" height="24" viewBox="0 0 300 300" xmlns="http://www.w3.org/2000/svg">
  <!-- Camera switch icon - two cycling arrows -->
  <!-- Upper arrow: arrowhead pointing right, tail curves down-left -->
  <path d="M212.1,24.6 c1.3,0.3 7.4,5.7 8.7,6.8
    l13.7,11.4 l39.3,32.8 l9.2,7.7
    c1.3,1.1 3.4,3.1 4.8,3.7
    c-1.7,2.4 -8.9,7.9 -11.5,10.1
    l-27.9,23.3 l-23.4,19.5
    c-3.5,3.0 -9.2,8.0 -12.9,10.3
    c-0.3,-6.0 -0.1,-13.5 -0.1,-19.6
    c0,-10.1 -0.1,-20.3 0,-30.4
    c-10.2,-0.1 -20.5,0 -30.7,0
    l-53.3,0 l-28.5,0 l-8.6,0
    c-9.6,0 -15.3,1.2 -24.2,4.6
    c-4.5,2.2 -8.0,4.5 -11.9,7.8
    c-2.2,1.5 -3.8,3.7 -5.5,5.7
    c-7.2,8.4 -11.7,19.7 -11.5,30.8
    c0.1,3.7 -0.1,4.8 0.9,8.5
    c-0.7,1.0 -2.8,2.6 -3.9,3.4
    l-9.0,7.4
    c-3.0,2.5 -5.6,4.9 -8.8,7.1
    c-4.6,-8.9 -5.3,-19.5 -5.0,-29.3
    c0,-0.7 0,-1.5 0.1,-2.2
    c1.6,-18.0 9.4,-34.8 22.1,-47.7
    c1.0,-1.0 2.2,-1.8 3.2,-2.8
    c11.2,-10.3 25.8,-16.4 40.9,-18.3
    c2.5,-0.3 4.6,-0.3 7.1,-0.3
    l10.2,0 l24.7,0 l91.5,0
    l0,-25.3z"
    fill="#FFFFFF"/>
  <!-- Lower arrow: arrowhead pointing left, tail curves up-right -->
  <path d="M282.3,124.7
    c0.2,0.1 0.4,0.1 0.5,0.3
    c4.7,9.8 5.5,21.3 4.6,32.0
    c-0.7,5.1 -1.5,10.3 -3.1,15.2
    c-1.0,3.5 -2.6,6.7 -4.1,9.9
    c-2.8,6.5 -6.9,12.2 -11.6,17.5
    c-2.1,2.4 -3.8,4.7 -6.5,6.6
    c-0.9,0.6 -2.1,1.9 -3.0,2.7
    c-9.6,7.7 -20.9,12.8 -33.0,15.1
    c-6.9,1.3 -10.8,1.0 -17.7,1.0
    l-16.3,0 l-58.4,0 l-31.3,0 l-8.7,0
    c-1.7,0 -4.2,0.1 -5.9,-0.1
    l0,50.6
    c-2.4,-1.5 -7.1,-5.6 -9.5,-7.6
    l-15.7,-13.1 l-28.1,-23.4
    c-4.1,-3.4 -9.5,-7.6 -13.3,-11.1
    c-1.1,-0.9 -8.9,-7.2 -9.0,-7.7
    c0.4,-0.7 0.8,-1.2 1.4,-1.8
    c2.3,-2.0 5.3,-4.4 7.7,-6.4
    l19.4,-16.2 l31.6,-26.3
    c2.5,-2.1 12.8,-11.2 14.8,-11.9
    c0.3,-0.1 0.3,-0.1 0.6,0
    c0.2,1.8 0.1,4.5 0.1,6.4
    l0,10.1 l0,34.2
    l87.8,0 l25.4,0 l9.4,0
    c4.0,0 6.7,-0.1 10.6,-0.8
    c8.0,-1.5 15.4,-4.9 21.8,-10.0
    c12.9,-10.2 20.2,-25.1 19.0,-41.4
    c-0.1,-1.7 -0.9,-4.7 -0.7,-6.3
    c1.3,-2.1 18.6,-15.9 21.2,-17.7z"
    fill="#FFFFFF"/>
</svg>
